<svg xmlns="http://www.w3.org/2000/svg" xmlns:xlink="http://www.w3.org/1999/xlink" width="1920" zoomAndPan="magnify" viewBox="0 0 1440 809.999993" height="1080" preserveAspectRatio="xMidYMid meet" version="1.0"><defs><clipPath id="4b52c33271"><path d="M 872 301.40625 L 904 301.40625 L 904 328 L 872 328 Z M 872 301.40625 " clip-rule="nonzero"/></clipPath><clipPath id="8211013900"><path d="M 830.96875 378 L 862 378 L 862 404.742188 L 830.96875 404.742188 Z M 830.96875 378 " clip-rule="nonzero"/></clipPath><clipPath id="4b8e256b09"><path d="M 882 378 L 914 378 L 914 404.742188 L 882 404.742188 Z M 882 378 " clip-rule="nonzero"/></clipPath><clipPath id="fb1ebfa04b"><path d="M 934 378 L 965.390625 378 L 965.390625 404.742188 L 934 404.742188 Z M 934 378 " clip-rule="nonzero"/></clipPath><clipPath id="2af9932902"><path d="M 852 404.742188 L 883.363281 404.742188 L 883.363281 431 L 852 431 Z M 852 404.742188 " clip-rule="nonzero"/></clipPath><clipPath id="967d63dbff"><path d="M 800 404.742188 L 832 404.742188 L 832 431 L 800 431 Z M 800 404.742188 " clip-rule="nonzero"/></clipPath><clipPath id="5452b13316"><path d="M 748.941406 404.742188 L 780 404.742188 L 780 431 L 748.941406 431 Z M 748.941406 404.742188 " clip-rule="nonzero"/></clipPath><clipPath id="fc7d550bcc"><path d="M 770 301.40625 L 802 301.40625 L 802 328 L 770 328 Z M 770 301.40625 " clip-rule="nonzero"/></clipPath><clipPath id="73d006b359"><path d="M 728.839844 378 L 760 378 L 760 404.742188 L 728.839844 404.742188 Z M 728.839844 378 " clip-rule="nonzero"/></clipPath><clipPath id="73c952ad94"><path d="M 780 378 L 812 378 L 812 404.742188 L 780 404.742188 Z M 780 378 " clip-rule="nonzero"/></clipPath><clipPath id="047676f124"><path d="M 832 378 L 863.257812 378 L 863.257812 404.742188 L 832 404.742188 Z M 832 378 " clip-rule="nonzero"/></clipPath><clipPath id="75eb41c4d3"><path d="M 904 404.613281 L 936 404.613281 L 936 431 L 904 431 Z M 904 404.613281 " clip-rule="nonzero"/></clipPath><clipPath id="ca46753a14"><path d="M 863.347656 482 L 895 482 L 895 507.945312 L 863.347656 507.945312 Z M 863.347656 482 " clip-rule="nonzero"/></clipPath><clipPath id="6a595efba5"><path d="M 915 482 L 947 482 L 947 507.945312 L 915 507.945312 Z M 915 482 " clip-rule="nonzero"/></clipPath><clipPath id="7be8e63f1c"><path d="M 966 482 L 997.765625 482 L 997.765625 507.945312 L 966 507.945312 Z M 966 482 " clip-rule="nonzero"/></clipPath><clipPath id="c41b36acc1"><path d="M 751 533 L 783 533 L 783 559.675781 L 751 559.675781 Z M 751 533 " clip-rule="nonzero"/></clipPath><clipPath id="af7193f590"><path d="M 792 456.34375 L 823.414062 456.34375 L 823.414062 483 L 792 483 Z M 792 456.34375 " clip-rule="nonzero"/></clipPath><clipPath id="3597e45198"><path d="M 740 456.34375 L 772 456.34375 L 772 483 L 740 483 Z M 740 456.34375 " clip-rule="nonzero"/></clipPath><clipPath id="ffbf139c97"><path d="M 688.996094 456.34375 L 720 456.34375 L 720 483 L 688.996094 483 Z M 688.996094 456.34375 " clip-rule="nonzero"/></clipPath><clipPath id="f97b5d6eea"><path d="M 623 249.804688 L 655 249.804688 L 655 276 L 623 276 Z M 623 249.804688 " clip-rule="nonzero"/></clipPath><clipPath id="257590279a"><path d="M 582.140625 327 L 614 327 L 614 353.136719 L 582.140625 353.136719 Z M 582.140625 327 " clip-rule="nonzero"/></clipPath><clipPath id="9ea7f9a636"><path d="M 633 327 L 665 327 L 665 353.136719 L 633 353.136719 Z M 633 327 " clip-rule="nonzero"/></clipPath><clipPath id="79ddd07cbd"><path d="M 685 327 L 716.558594 327 L 716.558594 353.136719 L 685 353.136719 Z M 685 327 " clip-rule="nonzero"/></clipPath><clipPath id="f55ed6f4ed"><path d="M 562 430 L 594 430 L 594 456.472656 L 562 456.472656 Z M 562 430 " clip-rule="nonzero"/></clipPath><clipPath id="266e626268"><path d="M 603 353.140625 L 634.53125 353.140625 L 634.53125 380 L 603 380 Z M 603 353.140625 " clip-rule="nonzero"/></clipPath><clipPath id="798dbbe3a2"><path d="M 551 353.140625 L 583 353.140625 L 583 380 L 551 380 Z M 551 353.140625 " clip-rule="nonzero"/></clipPath><clipPath id="d634db718c"><path d="M 500.113281 353.140625 L 532 353.140625 L 532 380 L 500.113281 380 Z M 500.113281 353.140625 " clip-rule="nonzero"/></clipPath><clipPath id="67e795b47f"><path d="M 521 249.804688 L 553 249.804688 L 553 276 L 521 276 Z M 521 249.804688 " clip-rule="nonzero"/></clipPath><clipPath id="ae76793b1e"><path d="M 480.007812 327 L 512 327 L 512 353.136719 L 480.007812 353.136719 Z M 480.007812 327 " clip-rule="nonzero"/></clipPath><clipPath id="deb0b7b2b2"><path d="M 531 327 L 563 327 L 563 353.136719 L 531 353.136719 Z M 531 327 " clip-rule="nonzero"/></clipPath><clipPath id="d5688e0682"><path d="M 583 327 L 614.429688 327 L 614.429688 353.136719 L 583 353.136719 Z M 583 327 " clip-rule="nonzero"/></clipPath><clipPath id="5db5f04791"><path d="M 655 353.011719 L 687 353.011719 L 687 379 L 655 379 Z M 655 353.011719 " clip-rule="nonzero"/></clipPath><clipPath id="8806edd271"><path d="M 614.515625 430 L 646 430 L 646 456.34375 L 614.515625 456.34375 Z M 614.515625 430 " clip-rule="nonzero"/></clipPath><clipPath id="aff2f196a2"><path d="M 666 430 L 698 430 L 698 456.34375 L 666 456.34375 Z M 666 430 " clip-rule="nonzero"/></clipPath><clipPath id="4c4895185c"><path d="M 717 430 L 748.9375 430 L 748.9375 456.34375 L 717 456.34375 Z M 717 430 " clip-rule="nonzero"/></clipPath><clipPath id="30f5b931b2"><path d="M 543 404.742188 L 574.585938 404.742188 L 574.585938 431 L 543 431 Z M 543 404.742188 " clip-rule="nonzero"/></clipPath><clipPath id="f4ef3112e9"><path d="M 491 404.742188 L 523 404.742188 L 523 431 L 491 431 Z M 491 404.742188 " clip-rule="nonzero"/></clipPath><clipPath id="450a553404"><path d="M 440.164062 404.742188 L 472 404.742188 L 472 431 L 440.164062 431 Z M 440.164062 404.742188 " clip-rule="nonzero"/></clipPath><clipPath id="671d86d5be"><path d="M 835 507.816406 L 867 507.816406 L 867 534 L 835 534 Z M 835 507.816406 " clip-rule="nonzero"/></clipPath><clipPath id="4feb2db411"><path d="M 793.691406 585 L 825 585 L 825 611.148438 L 793.691406 611.148438 Z M 793.691406 585 " clip-rule="nonzero"/></clipPath><clipPath id="f416f865dc"><path d="M 845 585 L 877 585 L 877 611.148438 L 845 611.148438 Z M 845 585 " clip-rule="nonzero"/></clipPath><clipPath id="f7cc7d7d4c"><path d="M 897 585 L 928.109375 585 L 928.109375 611.148438 L 897 611.148438 Z M 897 585 " clip-rule="nonzero"/></clipPath><clipPath id="0ef5fc03db"><path d="M 773 688 L 805 688 L 805 714.484375 L 773 714.484375 Z M 773 688 " clip-rule="nonzero"/></clipPath><clipPath id="f4ae11a032"><path d="M 815 611.152344 L 846.082031 611.152344 L 846.082031 638 L 815 638 Z M 815 611.152344 " clip-rule="nonzero"/></clipPath><clipPath id="2bb387af0e"><path d="M 763 611.152344 L 795 611.152344 L 795 638 L 763 638 Z M 763 611.152344 " clip-rule="nonzero"/></clipPath><clipPath id="36082268e3"><path d="M 711.660156 611.152344 L 743 611.152344 L 743 638 L 711.660156 638 Z M 711.660156 611.152344 " clip-rule="nonzero"/></clipPath><clipPath id="ebcefeefae"><path d="M 732 507.816406 L 764 507.816406 L 764 534 L 732 534 Z M 732 507.816406 " clip-rule="nonzero"/></clipPath><clipPath id="99c3f92634"><path d="M 691.558594 585 L 723 585 L 723 611.148438 L 691.558594 611.148438 Z M 691.558594 585 " clip-rule="nonzero"/></clipPath><clipPath id="a2cb097ca7"><path d="M 743 585 L 775 585 L 775 611.148438 L 743 611.148438 Z M 743 585 " clip-rule="nonzero"/></clipPath><clipPath id="3daaf2cfac"><path d="M 794 585 L 825.976562 585 L 825.976562 611.148438 L 794 611.148438 Z M 794 585 " clip-rule="nonzero"/></clipPath><clipPath id="3ea2c4962a"><path d="M 867 611.019531 L 899 611.019531 L 899 637 L 867 637 Z M 867 611.019531 " clip-rule="nonzero"/></clipPath><clipPath id="5c1e1417ba"><path d="M 826.066406 688 L 858 688 L 858 714.355469 L 826.066406 714.355469 Z M 826.066406 688 " clip-rule="nonzero"/></clipPath><clipPath id="6588b2236c"><path d="M 877 688 L 909 688 L 909 714.355469 L 877 714.355469 Z M 877 688 " clip-rule="nonzero"/></clipPath><clipPath id="f7ab0b1b11"><path d="M 929 688 L 960.484375 688 L 960.484375 714.355469 L 929 714.355469 Z M 929 688 " clip-rule="nonzero"/></clipPath><clipPath id="7dba4775c6"><path d="M 755 662.753906 L 786.132812 662.753906 L 786.132812 689 L 755 689 Z M 755 662.753906 " clip-rule="nonzero"/></clipPath><clipPath id="678125ba32"><path d="M 703 662.753906 L 735 662.753906 L 735 689 L 703 689 Z M 703 662.753906 " clip-rule="nonzero"/></clipPath><clipPath id="63840518be"><path d="M 651.714844 662.753906 L 683 662.753906 L 683 689 L 651.714844 689 Z M 651.714844 662.753906 " clip-rule="nonzero"/></clipPath><clipPath id="3a58eecdde"><path d="M 586 456.214844 L 618 456.214844 L 618 483 L 586 483 Z M 586 456.214844 " clip-rule="nonzero"/></clipPath><clipPath id="199e8c0f77"><path d="M 544.859375 533 L 576 533 L 576 559.546875 L 544.859375 559.546875 Z M 544.859375 533 " clip-rule="nonzero"/></clipPath><clipPath id="ef8d658b63"><path d="M 596 533 L 628 533 L 628 559.546875 L 596 559.546875 Z M 596 533 " clip-rule="nonzero"/></clipPath><clipPath id="28f7f2251d"><path d="M 648 533 L 679.28125 533 L 679.28125 559.546875 L 648 559.546875 Z M 648 533 " clip-rule="nonzero"/></clipPath><clipPath id="d561142696"><path d="M 524 636 L 556 636 L 556 662.882812 L 524 662.882812 Z M 524 636 " clip-rule="nonzero"/></clipPath><clipPath id="37aae43c67"><path d="M 566 559.546875 L 597.25 559.546875 L 597.25 586 L 566 586 Z M 566 559.546875 " clip-rule="nonzero"/></clipPath><clipPath id="84487d08bb"><path d="M 514 559.546875 L 546 559.546875 L 546 586 L 514 586 Z M 514 559.546875 " clip-rule="nonzero"/></clipPath><clipPath id="3cf6abae75"><path d="M 462.832031 559.546875 L 494 559.546875 L 494 586 L 462.832031 586 Z M 462.832031 559.546875 " clip-rule="nonzero"/></clipPath><clipPath id="90775432f9"><path d="M 484 456.214844 L 516 456.214844 L 516 483 L 484 483 Z M 484 456.214844 " clip-rule="nonzero"/></clipPath><clipPath id="f79d85fc53"><path d="M 442.726562 533 L 474 533 L 474 559.546875 L 442.726562 559.546875 Z M 442.726562 533 " clip-rule="nonzero"/></clipPath><clipPath id="6179328fba"><path d="M 494 533 L 526 533 L 526 559.546875 L 494 559.546875 Z M 494 533 " clip-rule="nonzero"/></clipPath><clipPath id="d8618ccf38"><path d="M 546 533 L 577.148438 533 L 577.148438 559.546875 L 546 559.546875 Z M 546 533 " clip-rule="nonzero"/></clipPath><clipPath id="0ec32dfd8d"><path d="M 618 559.417969 L 650 559.417969 L 650 586 L 618 586 Z M 618 559.417969 " clip-rule="nonzero"/></clipPath><clipPath id="a51fa1eba4"><path d="M 577.234375 636 L 609 636 L 609 662.75 L 577.234375 662.75 Z M 577.234375 636 " clip-rule="nonzero"/></clipPath><clipPath id="b5f159d2a6"><path d="M 628 636 L 660 636 L 660 662.75 L 628 662.75 Z M 628 636 " clip-rule="nonzero"/></clipPath><clipPath id="11f78ea3ef"><path d="M 680 636 L 711.65625 636 L 711.65625 662.75 L 680 662.75 Z M 680 636 " clip-rule="nonzero"/></clipPath><clipPath id="33755fc6ab"><path d="M 464 688 L 496 688 L 496 714.484375 L 464 714.484375 Z M 464 688 " clip-rule="nonzero"/></clipPath><clipPath id="95745db31a"><path d="M 506 611.152344 L 537.304688 611.152344 L 537.304688 638 L 506 638 Z M 506 611.152344 " clip-rule="nonzero"/></clipPath><clipPath id="11f5b258b5"><path d="M 454 611.152344 L 486 611.152344 L 486 638 L 454 638 Z M 454 611.152344 " clip-rule="nonzero"/></clipPath><clipPath id="1dea0460a1"><path d="M 402.882812 611.152344 L 434 611.152344 L 434 638 L 402.882812 638 Z M 402.882812 611.152344 " clip-rule="nonzero"/></clipPath><clipPath id="c3b2ba0bd1"><path d="M 870.730469 172 L 902 172 L 902 198.332031 L 870.730469 198.332031 Z M 870.730469 172 " clip-rule="nonzero"/></clipPath><clipPath id="58ef7fefc0"><path d="M 922 172 L 954 172 L 954 198.332031 L 922 198.332031 Z M 922 172 " clip-rule="nonzero"/></clipPath><clipPath id="aa570ac2e5"><path d="M 974 172 L 1005.152344 172 L 1005.152344 198.332031 L 974 198.332031 Z M 974 172 " clip-rule="nonzero"/></clipPath><clipPath id="113c71b961"><path d="M 850 275 L 882 275 L 882 301.667969 L 850 301.667969 Z M 850 275 " clip-rule="nonzero"/></clipPath><clipPath id="d9108201af"><path d="M 892 198.332031 L 923.125 198.332031 L 923.125 225 L 892 225 Z M 892 198.332031 " clip-rule="nonzero"/></clipPath><clipPath id="3a2bf3acd2"><path d="M 840 198.332031 L 872 198.332031 L 872 225 L 840 225 Z M 840 198.332031 " clip-rule="nonzero"/></clipPath><clipPath id="fb6b245e01"><path d="M 788.703125 198.332031 L 820 198.332031 L 820 225 L 788.703125 225 Z M 788.703125 198.332031 " clip-rule="nonzero"/></clipPath><clipPath id="d8184ec4a5"><path d="M 768.597656 172 L 800 172 L 800 198.332031 L 768.597656 198.332031 Z M 768.597656 172 " clip-rule="nonzero"/></clipPath><clipPath id="8b8ae656d9"><path d="M 820 172 L 852 172 L 852 198.332031 L 820 198.332031 Z M 820 172 " clip-rule="nonzero"/></clipPath><clipPath id="1700964178"><path d="M 872 172 L 903.019531 172 L 903.019531 198.332031 L 872 198.332031 Z M 872 172 " clip-rule="nonzero"/></clipPath><clipPath id="1ded0ff654"><path d="M 944 198.203125 L 976 198.203125 L 976 225 L 944 225 Z M 944 198.203125 " clip-rule="nonzero"/></clipPath><clipPath id="0ad1bcda97"><path d="M 903.105469 275 L 935 275 L 935 301.535156 L 903.105469 301.535156 Z M 903.105469 275 " clip-rule="nonzero"/></clipPath><clipPath id="3c5c1b8dac"><path d="M 954 275 L 986 275 L 986 301.535156 L 954 301.535156 Z M 954 275 " clip-rule="nonzero"/></clipPath><clipPath id="6cc4ae1cd1"><path d="M 1006 275 L 1037.527344 275 L 1037.527344 301.535156 L 1006 301.535156 Z M 1006 275 " clip-rule="nonzero"/></clipPath><clipPath id="b3437d8fa6"><path d="M 663 43.398438 L 695 43.398438 L 695 70 L 663 70 Z M 663 43.398438 " clip-rule="nonzero"/></clipPath><clipPath id="eea7750bd3"><path d="M 621.902344 120 L 653 120 L 653 146.730469 L 621.902344 146.730469 Z M 621.902344 120 " clip-rule="nonzero"/></clipPath><clipPath id="df6f7b651a"><path d="M 673 120 L 705 120 L 705 146.730469 L 673 146.730469 Z M 673 120 " clip-rule="nonzero"/></clipPath><clipPath id="125ac0a4ab"><path d="M 725 120 L 756.320312 120 L 756.320312 146.730469 L 725 146.730469 Z M 725 120 " clip-rule="nonzero"/></clipPath><clipPath id="0fe4ebcf08"><path d="M 643 146.730469 L 674.292969 146.730469 L 674.292969 173 L 643 173 Z M 643 146.730469 " clip-rule="nonzero"/></clipPath><clipPath id="10f5ec7db0"><path d="M 591 146.730469 L 623 146.730469 L 623 173 L 591 173 Z M 591 146.730469 " clip-rule="nonzero"/></clipPath><clipPath id="57d76074eb"><path d="M 539.871094 146.730469 L 571 146.730469 L 571 173 L 539.871094 173 Z M 539.871094 146.730469 " clip-rule="nonzero"/></clipPath><clipPath id="728834ffac"><path d="M 561 43.398438 L 593 43.398438 L 593 70 L 561 70 Z M 561 43.398438 " clip-rule="nonzero"/></clipPath><clipPath id="581f8d21fd"><path d="M 519.769531 120 L 551 120 L 551 146.730469 L 519.769531 146.730469 Z M 519.769531 120 " clip-rule="nonzero"/></clipPath><clipPath id="ada5e28e39"><path d="M 571 120 L 603 120 L 603 146.730469 L 571 146.730469 Z M 571 120 " clip-rule="nonzero"/></clipPath><clipPath id="6549d323cc"><path d="M 623 120 L 654.191406 120 L 654.191406 146.730469 L 623 146.730469 Z M 623 120 " clip-rule="nonzero"/></clipPath><clipPath id="e2f29a36fe"><path d="M 695 146.601562 L 727 146.601562 L 727 173 L 695 173 Z M 695 146.601562 " clip-rule="nonzero"/></clipPath><clipPath id="c6abd89b4b"><path d="M 654.277344 224 L 686 224 L 686 249.933594 L 654.277344 249.933594 Z M 654.277344 224 " clip-rule="nonzero"/></clipPath><clipPath id="f8029c6471"><path d="M 705 224 L 737 224 L 737 249.933594 L 705 249.933594 Z M 705 224 " clip-rule="nonzero"/></clipPath><clipPath id="444cabbd2c"><path d="M 757 224 L 788.699219 224 L 788.699219 249.933594 L 757 249.933594 Z M 757 224 " clip-rule="nonzero"/></clipPath><clipPath id="87c9b942f3"><path d="M 541 275 L 573 275 L 573 301.667969 L 541 301.667969 Z M 541 275 " clip-rule="nonzero"/></clipPath><clipPath id="eb1e9c1b98"><path d="M 583 198.332031 L 614.347656 198.332031 L 614.347656 225 L 583 225 Z M 583 198.332031 " clip-rule="nonzero"/></clipPath><clipPath id="3b0f7dc679"><path d="M 531 198.332031 L 563 198.332031 L 563 225 L 531 225 Z M 531 198.332031 " clip-rule="nonzero"/></clipPath><clipPath id="b79466a43c"><path d="M 479.925781 198.332031 L 511 198.332031 L 511 225 L 479.925781 225 Z M 479.925781 198.332031 " clip-rule="nonzero"/></clipPath></defs><path fill="#000000" d="M 867.175781 353.074219 L 892.984375 353.074219 L 887.875 378.839844 L 861.976562 378.839844 Z M 867.175781 353.074219 " fill-opacity="1" fill-rule="nonzero"/><path fill="#000000" d="M 918.882812 353.074219 L 944.691406 353.074219 L 939.582031 378.839844 L 913.683594 378.839844 Z M 918.882812 353.074219 " fill-opacity="1" fill-rule="nonzero"/><g clip-path="url(#4b52c33271)"><path fill="#000000" d="M 877.570312 301.539062 L 903.378906 301.539062 L 898.179688 327.308594 L 872.371094 327.308594 Z M 877.570312 301.539062 " fill-opacity="1" fill-rule="nonzero"/></g><path fill="#000000" d="M 846.472656 327.308594 L 872.371094 327.308594 L 867.175781 353.074219 L 841.367188 353.074219 Z M 846.472656 327.308594 " fill-opacity="1" fill-rule="nonzero"/><g clip-path="url(#8211013900)"><path fill="#000000" d="M 836.167969 378.839844 L 861.976562 378.839844 L 856.777344 404.609375 L 830.96875 404.609375 Z M 836.167969 378.839844 " fill-opacity="1" fill-rule="nonzero"/></g><g clip-path="url(#4b8e256b09)"><path fill="#000000" d="M 887.875 378.839844 L 913.683594 378.839844 L 908.484375 404.609375 L 882.675781 404.609375 Z M 887.875 378.839844 " fill-opacity="1" fill-rule="nonzero"/></g><g clip-path="url(#fb1ebfa04b)"><path fill="#000000" d="M 939.582031 378.839844 L 965.390625 378.839844 L 960.191406 404.609375 L 934.382812 404.609375 Z M 939.582031 378.839844 " fill-opacity="1" fill-rule="nonzero"/></g><path fill="#000000" d="M 847.15625 456.410156 L 821.347656 456.410156 L 826.457031 430.640625 L 852.355469 430.640625 Z M 847.15625 456.410156 " fill-opacity="1" fill-rule="nonzero"/><path fill="#000000" d="M 795.449219 456.410156 L 769.640625 456.410156 L 774.75 430.640625 L 800.648438 430.640625 Z M 795.449219 456.410156 " fill-opacity="1" fill-rule="nonzero"/><path fill="#000000" d="M 836.761719 507.941406 L 810.953125 507.941406 L 816.152344 482.175781 L 841.960938 482.175781 Z M 836.761719 507.941406 " fill-opacity="1" fill-rule="nonzero"/><path fill="#000000" d="M 867.859375 482.175781 L 841.960938 482.175781 L 847.15625 456.410156 L 872.96875 456.410156 Z M 867.859375 482.175781 " fill-opacity="1" fill-rule="nonzero"/><g clip-path="url(#2af9932902)"><path fill="#000000" d="M 878.164062 430.640625 L 852.355469 430.640625 L 857.554688 404.875 L 883.363281 404.875 Z M 878.164062 430.640625 " fill-opacity="1" fill-rule="nonzero"/></g><g clip-path="url(#967d63dbff)"><path fill="#000000" d="M 826.457031 430.640625 L 800.648438 430.640625 L 805.847656 404.875 L 831.65625 404.875 Z M 826.457031 430.640625 " fill-opacity="1" fill-rule="nonzero"/></g><g clip-path="url(#5452b13316)"><path fill="#000000" d="M 774.75 430.640625 L 748.941406 430.640625 L 754.140625 404.875 L 779.949219 404.875 Z M 774.75 430.640625 " fill-opacity="1" fill-rule="nonzero"/></g><path fill="#000000" d="M 765.042969 353.074219 L 790.851562 353.074219 L 785.742188 378.839844 L 759.84375 378.839844 Z M 765.042969 353.074219 " fill-opacity="1" fill-rule="nonzero"/><path fill="#000000" d="M 816.75 353.074219 L 842.558594 353.074219 L 837.449219 378.839844 L 811.550781 378.839844 Z M 816.75 353.074219 " fill-opacity="1" fill-rule="nonzero"/><g clip-path="url(#fc7d550bcc)"><path fill="#000000" d="M 775.4375 301.539062 L 801.246094 301.539062 L 796.046875 327.308594 L 770.238281 327.308594 Z M 775.4375 301.539062 " fill-opacity="1" fill-rule="nonzero"/></g><path fill="#000000" d="M 744.339844 327.308594 L 770.238281 327.308594 L 765.042969 353.074219 L 739.234375 353.074219 Z M 744.339844 327.308594 " fill-opacity="1" fill-rule="nonzero"/><g clip-path="url(#73d006b359)"><path fill="#000000" d="M 734.035156 378.839844 L 759.84375 378.839844 L 754.648438 404.609375 L 728.839844 404.609375 Z M 734.035156 378.839844 " fill-opacity="1" fill-rule="nonzero"/></g><g clip-path="url(#73c952ad94)"><path fill="#000000" d="M 785.742188 378.839844 L 811.550781 378.839844 L 806.355469 404.609375 L 780.546875 404.609375 Z M 785.742188 378.839844 " fill-opacity="1" fill-rule="nonzero"/></g><g clip-path="url(#047676f124)"><path fill="#000000" d="M 837.449219 378.839844 L 863.257812 378.839844 L 858.0625 404.609375 L 832.253906 404.609375 Z M 837.449219 378.839844 " fill-opacity="1" fill-rule="nonzero"/></g><path fill="#000000" d="M 899.550781 456.277344 L 925.359375 456.277344 L 920.25 482.046875 L 894.351562 482.046875 Z M 899.550781 456.277344 " fill-opacity="1" fill-rule="nonzero"/><path fill="#000000" d="M 951.257812 456.277344 L 977.066406 456.277344 L 971.957031 482.046875 L 946.058594 482.046875 Z M 951.257812 456.277344 " fill-opacity="1" fill-rule="nonzero"/><g clip-path="url(#75eb41c4d3)"><path fill="#000000" d="M 909.945312 404.746094 L 935.753906 404.746094 L 930.554688 430.511719 L 904.746094 430.511719 Z M 909.945312 404.746094 " fill-opacity="1" fill-rule="nonzero"/></g><path fill="#000000" d="M 878.847656 430.511719 L 904.746094 430.511719 L 899.550781 456.277344 L 873.742188 456.277344 Z M 878.847656 430.511719 " fill-opacity="1" fill-rule="nonzero"/><g clip-path="url(#ca46753a14)"><path fill="#000000" d="M 868.542969 482.046875 L 894.351562 482.046875 L 889.15625 507.8125 L 863.347656 507.8125 Z M 868.542969 482.046875 " fill-opacity="1" fill-rule="nonzero"/></g><g clip-path="url(#6a595efba5)"><path fill="#000000" d="M 920.25 482.046875 L 946.058594 482.046875 L 940.863281 507.8125 L 915.054688 507.8125 Z M 920.25 482.046875 " fill-opacity="1" fill-rule="nonzero"/></g><g clip-path="url(#7be8e63f1c)"><path fill="#000000" d="M 971.957031 482.046875 L 997.765625 482.046875 L 992.570312 507.8125 L 966.761719 507.8125 Z M 971.957031 482.046875 " fill-opacity="1" fill-rule="nonzero"/></g><path fill="#000000" d="M 787.210938 508.011719 L 761.402344 508.011719 L 766.511719 482.242188 L 792.410156 482.242188 Z M 787.210938 508.011719 " fill-opacity="1" fill-rule="nonzero"/><path fill="#000000" d="M 735.503906 508.011719 L 709.695312 508.011719 L 714.804688 482.242188 L 740.703125 482.242188 Z M 735.503906 508.011719 " fill-opacity="1" fill-rule="nonzero"/><g clip-path="url(#c41b36acc1)"><path fill="#000000" d="M 776.816406 559.546875 L 751.007812 559.546875 L 756.203125 533.777344 L 782.015625 533.777344 Z M 776.816406 559.546875 " fill-opacity="1" fill-rule="nonzero"/></g><path fill="#000000" d="M 807.910156 533.777344 L 782.015625 533.777344 L 787.210938 508.011719 L 813.019531 508.011719 Z M 807.910156 533.777344 " fill-opacity="1" fill-rule="nonzero"/><g clip-path="url(#af7193f590)"><path fill="#000000" d="M 818.21875 482.242188 L 792.410156 482.242188 L 797.605469 456.476562 L 823.414062 456.476562 Z M 818.21875 482.242188 " fill-opacity="1" fill-rule="nonzero"/></g><g clip-path="url(#3597e45198)"><path fill="#000000" d="M 766.511719 482.242188 L 740.703125 482.242188 L 745.898438 456.476562 L 771.707031 456.476562 Z M 766.511719 482.242188 " fill-opacity="1" fill-rule="nonzero"/></g><g clip-path="url(#ffbf139c97)"><path fill="#000000" d="M 714.804688 482.242188 L 688.996094 482.242188 L 694.191406 456.476562 L 720 456.476562 Z M 714.804688 482.242188 " fill-opacity="1" fill-rule="nonzero"/></g><path fill="#000000" d="M 618.34375 301.472656 L 644.152344 301.472656 L 639.042969 327.238281 L 613.144531 327.238281 Z M 618.34375 301.472656 " fill-opacity="1" fill-rule="nonzero"/><path fill="#000000" d="M 670.050781 301.472656 L 695.859375 301.472656 L 690.75 327.238281 L 664.851562 327.238281 Z M 670.050781 301.472656 " fill-opacity="1" fill-rule="nonzero"/><g clip-path="url(#f97b5d6eea)"><path fill="#000000" d="M 628.738281 249.9375 L 654.546875 249.9375 L 649.351562 275.703125 L 623.542969 275.703125 Z M 628.738281 249.9375 " fill-opacity="1" fill-rule="nonzero"/></g><path fill="#000000" d="M 597.644531 275.703125 L 623.542969 275.703125 L 618.34375 301.472656 L 592.535156 301.472656 Z M 597.644531 275.703125 " fill-opacity="1" fill-rule="nonzero"/><g clip-path="url(#257590279a)"><path fill="#000000" d="M 587.335938 327.238281 L 613.144531 327.238281 L 607.949219 353.007812 L 582.140625 353.007812 Z M 587.335938 327.238281 " fill-opacity="1" fill-rule="nonzero"/></g><g clip-path="url(#9ea7f9a636)"><path fill="#000000" d="M 639.042969 327.238281 L 664.851562 327.238281 L 659.65625 353.007812 L 633.847656 353.007812 Z M 639.042969 327.238281 " fill-opacity="1" fill-rule="nonzero"/></g><g clip-path="url(#79ddd07cbd)"><path fill="#000000" d="M 690.75 327.238281 L 716.558594 327.238281 L 711.363281 353.007812 L 685.554688 353.007812 Z M 690.75 327.238281 " fill-opacity="1" fill-rule="nonzero"/></g><path fill="#000000" d="M 598.328125 404.804688 L 572.519531 404.804688 L 577.628906 379.039062 L 603.527344 379.039062 Z M 598.328125 404.804688 " fill-opacity="1" fill-rule="nonzero"/><path fill="#000000" d="M 546.621094 404.804688 L 520.8125 404.804688 L 525.921875 379.039062 L 551.820312 379.039062 Z M 546.621094 404.804688 " fill-opacity="1" fill-rule="nonzero"/><g clip-path="url(#f55ed6f4ed)"><path fill="#000000" d="M 587.933594 456.339844 L 562.125 456.339844 L 567.320312 430.574219 L 593.128906 430.574219 Z M 587.933594 456.339844 " fill-opacity="1" fill-rule="nonzero"/></g><path fill="#000000" d="M 619.027344 430.574219 L 593.128906 430.574219 L 598.328125 404.804688 L 624.136719 404.804688 Z M 619.027344 430.574219 " fill-opacity="1" fill-rule="nonzero"/><g clip-path="url(#266e626268)"><path fill="#000000" d="M 629.335938 379.039062 L 603.527344 379.039062 L 608.722656 353.273438 L 634.53125 353.273438 Z M 629.335938 379.039062 " fill-opacity="1" fill-rule="nonzero"/></g><g clip-path="url(#798dbbe3a2)"><path fill="#000000" d="M 577.628906 379.039062 L 551.820312 379.039062 L 557.015625 353.273438 L 582.824219 353.273438 Z M 577.628906 379.039062 " fill-opacity="1" fill-rule="nonzero"/></g><g clip-path="url(#d634db718c)"><path fill="#000000" d="M 525.921875 379.039062 L 500.113281 379.039062 L 505.308594 353.273438 L 531.117188 353.273438 Z M 525.921875 379.039062 " fill-opacity="1" fill-rule="nonzero"/></g><path fill="#000000" d="M 516.210938 301.472656 L 542.019531 301.472656 L 536.914062 327.238281 L 511.015625 327.238281 Z M 516.210938 301.472656 " fill-opacity="1" fill-rule="nonzero"/><path fill="#000000" d="M 567.917969 301.472656 L 593.726562 301.472656 L 588.621094 327.238281 L 562.722656 327.238281 Z M 567.917969 301.472656 " fill-opacity="1" fill-rule="nonzero"/><g clip-path="url(#67e795b47f)"><path fill="#000000" d="M 526.605469 249.9375 L 552.414062 249.9375 L 547.21875 275.703125 L 521.410156 275.703125 Z M 526.605469 249.9375 " fill-opacity="1" fill-rule="nonzero"/></g><path fill="#000000" d="M 495.511719 275.703125 L 521.410156 275.703125 L 516.210938 301.472656 L 490.402344 301.472656 Z M 495.511719 275.703125 " fill-opacity="1" fill-rule="nonzero"/><g clip-path="url(#ae76793b1e)"><path fill="#000000" d="M 485.207031 327.238281 L 511.015625 327.238281 L 505.816406 353.007812 L 480.007812 353.007812 Z M 485.207031 327.238281 " fill-opacity="1" fill-rule="nonzero"/></g><g clip-path="url(#deb0b7b2b2)"><path fill="#000000" d="M 536.914062 327.238281 L 562.722656 327.238281 L 557.523438 353.007812 L 531.714844 353.007812 Z M 536.914062 327.238281 " fill-opacity="1" fill-rule="nonzero"/></g><g clip-path="url(#d5688e0682)"><path fill="#000000" d="M 588.621094 327.238281 L 614.429688 327.238281 L 609.230469 353.007812 L 583.421875 353.007812 Z M 588.621094 327.238281 " fill-opacity="1" fill-rule="nonzero"/></g><path fill="#000000" d="M 650.71875 404.675781 L 676.527344 404.675781 L 671.421875 430.445312 L 645.523438 430.445312 Z M 650.71875 404.675781 " fill-opacity="1" fill-rule="nonzero"/><path fill="#000000" d="M 702.425781 404.675781 L 728.234375 404.675781 L 723.128906 430.445312 L 697.230469 430.445312 Z M 702.425781 404.675781 " fill-opacity="1" fill-rule="nonzero"/><g clip-path="url(#5db5f04791)"><path fill="#000000" d="M 661.113281 353.140625 L 686.921875 353.140625 L 681.726562 378.910156 L 655.917969 378.910156 Z M 661.113281 353.140625 " fill-opacity="1" fill-rule="nonzero"/></g><path fill="#000000" d="M 630.019531 378.910156 L 655.917969 378.910156 L 650.71875 404.675781 L 624.910156 404.675781 Z M 630.019531 378.910156 " fill-opacity="1" fill-rule="nonzero"/><g clip-path="url(#8806edd271)"><path fill="#000000" d="M 619.714844 430.445312 L 645.523438 430.445312 L 640.324219 456.210938 L 614.515625 456.210938 Z M 619.714844 430.445312 " fill-opacity="1" fill-rule="nonzero"/></g><g clip-path="url(#aff2f196a2)"><path fill="#000000" d="M 671.421875 430.445312 L 697.230469 430.445312 L 692.03125 456.210938 L 666.222656 456.210938 Z M 671.421875 430.445312 " fill-opacity="1" fill-rule="nonzero"/></g><g clip-path="url(#4c4895185c)"><path fill="#000000" d="M 723.128906 430.445312 L 748.9375 430.445312 L 743.738281 456.210938 L 717.929688 456.210938 Z M 723.128906 430.445312 " fill-opacity="1" fill-rule="nonzero"/></g><path fill="#000000" d="M 538.382812 456.410156 L 512.574219 456.410156 L 517.679688 430.640625 L 543.578125 430.640625 Z M 538.382812 456.410156 " fill-opacity="1" fill-rule="nonzero"/><path fill="#000000" d="M 486.675781 456.410156 L 460.867188 456.410156 L 465.972656 430.640625 L 491.871094 430.640625 Z M 486.675781 456.410156 " fill-opacity="1" fill-rule="nonzero"/><path fill="#000000" d="M 527.984375 507.941406 L 502.175781 507.941406 L 507.375 482.175781 L 533.183594 482.175781 Z M 527.984375 507.941406 " fill-opacity="1" fill-rule="nonzero"/><path fill="#000000" d="M 559.082031 482.175781 L 533.183594 482.175781 L 538.382812 456.410156 L 564.191406 456.410156 Z M 559.082031 482.175781 " fill-opacity="1" fill-rule="nonzero"/><g clip-path="url(#30f5b931b2)"><path fill="#000000" d="M 569.386719 430.640625 L 543.578125 430.640625 L 548.777344 404.875 L 574.585938 404.875 Z M 569.386719 430.640625 " fill-opacity="1" fill-rule="nonzero"/></g><g clip-path="url(#f4ef3112e9)"><path fill="#000000" d="M 517.679688 430.640625 L 491.871094 430.640625 L 497.070312 404.875 L 522.878906 404.875 Z M 517.679688 430.640625 " fill-opacity="1" fill-rule="nonzero"/></g><g clip-path="url(#450a553404)"><path fill="#000000" d="M 465.972656 430.640625 L 440.164062 430.640625 L 445.363281 404.875 L 471.171875 404.875 Z M 465.972656 430.640625 " fill-opacity="1" fill-rule="nonzero"/></g><path fill="#000000" d="M 829.894531 559.484375 L 855.703125 559.484375 L 850.59375 585.25 L 824.695312 585.25 Z M 829.894531 559.484375 " fill-opacity="1" fill-rule="nonzero"/><path fill="#000000" d="M 881.601562 559.484375 L 907.410156 559.484375 L 902.300781 585.25 L 876.402344 585.25 Z M 881.601562 559.484375 " fill-opacity="1" fill-rule="nonzero"/><g clip-path="url(#671d86d5be)"><path fill="#000000" d="M 840.289062 507.949219 L 866.097656 507.949219 L 860.898438 533.714844 L 835.089844 533.714844 Z M 840.289062 507.949219 " fill-opacity="1" fill-rule="nonzero"/></g><path fill="#000000" d="M 809.191406 533.714844 L 835.089844 533.714844 L 829.894531 559.484375 L 804.085938 559.484375 Z M 809.191406 533.714844 " fill-opacity="1" fill-rule="nonzero"/><g clip-path="url(#4feb2db411)"><path fill="#000000" d="M 798.886719 585.25 L 824.695312 585.25 L 819.5 611.015625 L 793.691406 611.015625 Z M 798.886719 585.25 " fill-opacity="1" fill-rule="nonzero"/></g><g clip-path="url(#f416f865dc)"><path fill="#000000" d="M 850.59375 585.25 L 876.402344 585.25 L 871.207031 611.015625 L 845.398438 611.015625 Z M 850.59375 585.25 " fill-opacity="1" fill-rule="nonzero"/></g><g clip-path="url(#f7cc7d7d4c)"><path fill="#000000" d="M 902.300781 585.25 L 928.109375 585.25 L 922.914062 611.015625 L 897.105469 611.015625 Z M 902.300781 585.25 " fill-opacity="1" fill-rule="nonzero"/></g><path fill="#000000" d="M 809.878906 662.816406 L 784.070312 662.816406 L 789.175781 637.050781 L 815.074219 637.050781 Z M 809.878906 662.816406 " fill-opacity="1" fill-rule="nonzero"/><path fill="#000000" d="M 758.171875 662.816406 L 732.363281 662.816406 L 737.46875 637.050781 L 763.367188 637.050781 Z M 758.171875 662.816406 " fill-opacity="1" fill-rule="nonzero"/><g clip-path="url(#0ef5fc03db)"><path fill="#000000" d="M 799.484375 714.351562 L 773.671875 714.351562 L 778.871094 688.585938 L 804.679688 688.585938 Z M 799.484375 714.351562 " fill-opacity="1" fill-rule="nonzero"/></g><path fill="#000000" d="M 830.578125 688.585938 L 804.679688 688.585938 L 809.878906 662.816406 L 835.6875 662.816406 Z M 830.578125 688.585938 " fill-opacity="1" fill-rule="nonzero"/><g clip-path="url(#f4ae11a032)"><path fill="#000000" d="M 840.882812 637.050781 L 815.074219 637.050781 L 820.273438 611.28125 L 846.082031 611.28125 Z M 840.882812 637.050781 " fill-opacity="1" fill-rule="nonzero"/></g><g clip-path="url(#2bb387af0e)"><path fill="#000000" d="M 789.175781 637.050781 L 763.367188 637.050781 L 768.566406 611.28125 L 794.375 611.28125 Z M 789.175781 637.050781 " fill-opacity="1" fill-rule="nonzero"/></g><g clip-path="url(#36082268e3)"><path fill="#000000" d="M 737.46875 637.050781 L 711.660156 637.050781 L 716.859375 611.28125 L 742.667969 611.28125 Z M 737.46875 637.050781 " fill-opacity="1" fill-rule="nonzero"/></g><path fill="#000000" d="M 727.761719 559.484375 L 753.570312 559.484375 L 748.460938 585.25 L 722.5625 585.25 Z M 727.761719 559.484375 " fill-opacity="1" fill-rule="nonzero"/><path fill="#000000" d="M 779.46875 559.484375 L 805.277344 559.484375 L 800.167969 585.25 L 774.269531 585.25 Z M 779.46875 559.484375 " fill-opacity="1" fill-rule="nonzero"/><g clip-path="url(#ebcefeefae)"><path fill="#000000" d="M 738.15625 507.949219 L 763.964844 507.949219 L 758.769531 533.714844 L 732.960938 533.714844 Z M 738.15625 507.949219 " fill-opacity="1" fill-rule="nonzero"/></g><path fill="#000000" d="M 707.0625 533.714844 L 732.960938 533.714844 L 727.761719 559.484375 L 701.953125 559.484375 Z M 707.0625 533.714844 " fill-opacity="1" fill-rule="nonzero"/><g clip-path="url(#99c3f92634)"><path fill="#000000" d="M 696.753906 585.25 L 722.5625 585.25 L 717.367188 611.015625 L 691.558594 611.015625 Z M 696.753906 585.25 " fill-opacity="1" fill-rule="nonzero"/></g><g clip-path="url(#a2cb097ca7)"><path fill="#000000" d="M 748.460938 585.25 L 774.269531 585.25 L 769.074219 611.015625 L 743.265625 611.015625 Z M 748.460938 585.25 " fill-opacity="1" fill-rule="nonzero"/></g><g clip-path="url(#3daaf2cfac)"><path fill="#000000" d="M 800.167969 585.25 L 825.976562 585.25 L 820.78125 611.015625 L 794.972656 611.015625 Z M 800.167969 585.25 " fill-opacity="1" fill-rule="nonzero"/></g><path fill="#000000" d="M 862.269531 662.6875 L 888.078125 662.6875 L 882.96875 688.453125 L 857.070312 688.453125 Z M 862.269531 662.6875 " fill-opacity="1" fill-rule="nonzero"/><path fill="#000000" d="M 913.976562 662.6875 L 939.785156 662.6875 L 934.675781 688.453125 L 908.777344 688.453125 Z M 913.976562 662.6875 " fill-opacity="1" fill-rule="nonzero"/><g clip-path="url(#3ea2c4962a)"><path fill="#000000" d="M 872.664062 611.152344 L 898.472656 611.152344 L 893.277344 636.921875 L 867.46875 636.921875 Z M 872.664062 611.152344 " fill-opacity="1" fill-rule="nonzero"/></g><path fill="#000000" d="M 841.570312 636.921875 L 867.46875 636.921875 L 862.269531 662.6875 L 836.460938 662.6875 Z M 841.570312 636.921875 " fill-opacity="1" fill-rule="nonzero"/><g clip-path="url(#5c1e1417ba)"><path fill="#000000" d="M 831.261719 688.453125 L 857.070312 688.453125 L 851.875 714.222656 L 826.066406 714.222656 Z M 831.261719 688.453125 " fill-opacity="1" fill-rule="nonzero"/></g><g clip-path="url(#6588b2236c)"><path fill="#000000" d="M 882.96875 688.453125 L 908.777344 688.453125 L 903.582031 714.222656 L 877.773438 714.222656 Z M 882.96875 688.453125 " fill-opacity="1" fill-rule="nonzero"/></g><g clip-path="url(#f7ab0b1b11)"><path fill="#000000" d="M 934.675781 688.453125 L 960.484375 688.453125 L 955.289062 714.222656 L 929.480469 714.222656 Z M 934.675781 688.453125 " fill-opacity="1" fill-rule="nonzero"/></g><path fill="#000000" d="M 749.929688 714.417969 L 724.121094 714.417969 L 729.230469 688.652344 L 755.128906 688.652344 Z M 749.929688 714.417969 " fill-opacity="1" fill-rule="nonzero"/><path fill="#000000" d="M 698.222656 714.417969 L 672.414062 714.417969 L 677.523438 688.652344 L 703.421875 688.652344 Z M 698.222656 714.417969 " fill-opacity="1" fill-rule="nonzero"/><path fill="#000000" d="M 739.535156 765.953125 L 713.726562 765.953125 L 718.925781 740.1875 L 744.734375 740.1875 Z M 739.535156 765.953125 " fill-opacity="1" fill-rule="nonzero"/><path fill="#000000" d="M 770.632812 740.1875 L 744.734375 740.1875 L 749.929688 714.417969 L 775.738281 714.417969 Z M 770.632812 740.1875 " fill-opacity="1" fill-rule="nonzero"/><g clip-path="url(#7dba4775c6)"><path fill="#000000" d="M 780.9375 688.652344 L 755.128906 688.652344 L 760.324219 662.882812 L 786.132812 662.882812 Z M 780.9375 688.652344 " fill-opacity="1" fill-rule="nonzero"/></g><g clip-path="url(#678125ba32)"><path fill="#000000" d="M 729.230469 688.652344 L 703.421875 688.652344 L 708.617188 662.882812 L 734.425781 662.882812 Z M 729.230469 688.652344 " fill-opacity="1" fill-rule="nonzero"/></g><g clip-path="url(#63840518be)"><path fill="#000000" d="M 677.523438 688.652344 L 651.714844 688.652344 L 656.910156 662.882812 L 682.71875 662.882812 Z M 677.523438 688.652344 " fill-opacity="1" fill-rule="nonzero"/></g><path fill="#000000" d="M 581.0625 507.878906 L 606.871094 507.878906 L 601.765625 533.648438 L 575.867188 533.648438 Z M 581.0625 507.878906 " fill-opacity="1" fill-rule="nonzero"/><path fill="#000000" d="M 632.769531 507.878906 L 658.578125 507.878906 L 653.472656 533.648438 L 627.574219 533.648438 Z M 632.769531 507.878906 " fill-opacity="1" fill-rule="nonzero"/><g clip-path="url(#3a58eecdde)"><path fill="#000000" d="M 591.457031 456.347656 L 617.265625 456.347656 L 612.070312 482.113281 L 586.261719 482.113281 Z M 591.457031 456.347656 " fill-opacity="1" fill-rule="nonzero"/></g><path fill="#000000" d="M 560.363281 482.113281 L 586.261719 482.113281 L 581.0625 507.878906 L 555.253906 507.878906 Z M 560.363281 482.113281 " fill-opacity="1" fill-rule="nonzero"/><g clip-path="url(#199e8c0f77)"><path fill="#000000" d="M 550.058594 533.648438 L 575.867188 533.648438 L 570.667969 559.414062 L 544.859375 559.414062 Z M 550.058594 533.648438 " fill-opacity="1" fill-rule="nonzero"/></g><g clip-path="url(#ef8d658b63)"><path fill="#000000" d="M 601.765625 533.648438 L 627.574219 533.648438 L 622.375 559.414062 L 596.566406 559.414062 Z M 601.765625 533.648438 " fill-opacity="1" fill-rule="nonzero"/></g><g clip-path="url(#28f7f2251d)"><path fill="#000000" d="M 653.472656 533.648438 L 679.28125 533.648438 L 674.082031 559.414062 L 648.273438 559.414062 Z M 653.472656 533.648438 " fill-opacity="1" fill-rule="nonzero"/></g><path fill="#000000" d="M 561.046875 611.214844 L 535.238281 611.214844 L 540.347656 585.449219 L 566.246094 585.449219 Z M 561.046875 611.214844 " fill-opacity="1" fill-rule="nonzero"/><path fill="#000000" d="M 509.339844 611.214844 L 483.53125 611.214844 L 488.640625 585.449219 L 514.539062 585.449219 Z M 509.339844 611.214844 " fill-opacity="1" fill-rule="nonzero"/><g clip-path="url(#d561142696)"><path fill="#000000" d="M 550.652344 662.75 L 524.84375 662.75 L 530.042969 636.980469 L 555.851562 636.980469 Z M 550.652344 662.75 " fill-opacity="1" fill-rule="nonzero"/></g><path fill="#000000" d="M 581.75 636.980469 L 555.851562 636.980469 L 561.046875 611.214844 L 586.855469 611.214844 Z M 581.75 636.980469 " fill-opacity="1" fill-rule="nonzero"/><g clip-path="url(#37aae43c67)"><path fill="#000000" d="M 592.054688 585.449219 L 566.246094 585.449219 L 571.441406 559.679688 L 597.25 559.679688 Z M 592.054688 585.449219 " fill-opacity="1" fill-rule="nonzero"/></g><g clip-path="url(#84487d08bb)"><path fill="#000000" d="M 540.347656 585.449219 L 514.539062 585.449219 L 519.734375 559.679688 L 545.542969 559.679688 Z M 540.347656 585.449219 " fill-opacity="1" fill-rule="nonzero"/></g><g clip-path="url(#3cf6abae75)"><path fill="#000000" d="M 488.640625 585.449219 L 462.832031 585.449219 L 468.027344 559.679688 L 493.835938 559.679688 Z M 488.640625 585.449219 " fill-opacity="1" fill-rule="nonzero"/></g><path fill="#000000" d="M 478.929688 507.878906 L 504.738281 507.878906 L 499.632812 533.648438 L 473.734375 533.648438 Z M 478.929688 507.878906 " fill-opacity="1" fill-rule="nonzero"/><path fill="#000000" d="M 530.636719 507.878906 L 556.445312 507.878906 L 551.339844 533.648438 L 525.441406 533.648438 Z M 530.636719 507.878906 " fill-opacity="1" fill-rule="nonzero"/><g clip-path="url(#90775432f9)"><path fill="#000000" d="M 489.328125 456.347656 L 515.136719 456.347656 L 509.9375 482.113281 L 484.128906 482.113281 Z M 489.328125 456.347656 " fill-opacity="1" fill-rule="nonzero"/></g><path fill="#000000" d="M 458.230469 482.113281 L 484.128906 482.113281 L 478.929688 507.878906 L 453.121094 507.878906 Z M 458.230469 482.113281 " fill-opacity="1" fill-rule="nonzero"/><g clip-path="url(#f79d85fc53)"><path fill="#000000" d="M 447.925781 533.648438 L 473.734375 533.648438 L 468.535156 559.414062 L 442.726562 559.414062 Z M 447.925781 533.648438 " fill-opacity="1" fill-rule="nonzero"/></g><g clip-path="url(#6179328fba)"><path fill="#000000" d="M 499.632812 533.648438 L 525.441406 533.648438 L 520.242188 559.414062 L 494.433594 559.414062 Z M 499.632812 533.648438 " fill-opacity="1" fill-rule="nonzero"/></g><g clip-path="url(#d8618ccf38)"><path fill="#000000" d="M 551.339844 533.648438 L 577.148438 533.648438 L 571.949219 559.414062 L 546.140625 559.414062 Z M 551.339844 533.648438 " fill-opacity="1" fill-rule="nonzero"/></g><path fill="#000000" d="M 613.4375 611.085938 L 639.246094 611.085938 L 634.140625 636.851562 L 608.242188 636.851562 Z M 613.4375 611.085938 " fill-opacity="1" fill-rule="nonzero"/><path fill="#000000" d="M 665.144531 611.085938 L 690.953125 611.085938 L 685.847656 636.851562 L 659.949219 636.851562 Z M 665.144531 611.085938 " fill-opacity="1" fill-rule="nonzero"/><g clip-path="url(#0ec32dfd8d)"><path fill="#000000" d="M 623.835938 559.550781 L 649.644531 559.550781 L 644.445312 585.316406 L 618.636719 585.316406 Z M 623.835938 559.550781 " fill-opacity="1" fill-rule="nonzero"/></g><path fill="#000000" d="M 592.738281 585.316406 L 618.636719 585.316406 L 613.4375 611.085938 L 587.628906 611.085938 Z M 592.738281 585.316406 " fill-opacity="1" fill-rule="nonzero"/><g clip-path="url(#a51fa1eba4)"><path fill="#000000" d="M 582.433594 636.851562 L 608.242188 636.851562 L 603.042969 662.621094 L 577.234375 662.621094 Z M 582.433594 636.851562 " fill-opacity="1" fill-rule="nonzero"/></g><g clip-path="url(#b5f159d2a6)"><path fill="#000000" d="M 634.140625 636.851562 L 659.949219 636.851562 L 654.75 662.621094 L 628.941406 662.621094 Z M 634.140625 636.851562 " fill-opacity="1" fill-rule="nonzero"/></g><g clip-path="url(#11f78ea3ef)"><path fill="#000000" d="M 685.847656 636.851562 L 711.65625 636.851562 L 706.457031 662.621094 L 680.648438 662.621094 Z M 685.847656 636.851562 " fill-opacity="1" fill-rule="nonzero"/></g><path fill="#000000" d="M 501.101562 662.816406 L 475.292969 662.816406 L 480.398438 637.050781 L 506.296875 637.050781 Z M 501.101562 662.816406 " fill-opacity="1" fill-rule="nonzero"/><path fill="#000000" d="M 449.394531 662.816406 L 423.585938 662.816406 L 428.691406 637.050781 L 454.589844 637.050781 Z M 449.394531 662.816406 " fill-opacity="1" fill-rule="nonzero"/><g clip-path="url(#33755fc6ab)"><path fill="#000000" d="M 490.707031 714.351562 L 464.898438 714.351562 L 470.09375 688.585938 L 495.902344 688.585938 Z M 490.707031 714.351562 " fill-opacity="1" fill-rule="nonzero"/></g><path fill="#000000" d="M 521.800781 688.585938 L 495.902344 688.585938 L 501.101562 662.816406 L 526.910156 662.816406 Z M 521.800781 688.585938 " fill-opacity="1" fill-rule="nonzero"/><g clip-path="url(#95745db31a)"><path fill="#000000" d="M 532.105469 637.050781 L 506.296875 637.050781 L 511.496094 611.28125 L 537.304688 611.28125 Z M 532.105469 637.050781 " fill-opacity="1" fill-rule="nonzero"/></g><g clip-path="url(#11f5b258b5)"><path fill="#000000" d="M 480.398438 637.050781 L 454.589844 637.050781 L 459.789062 611.28125 L 485.597656 611.28125 Z M 480.398438 637.050781 " fill-opacity="1" fill-rule="nonzero"/></g><g clip-path="url(#1dea0460a1)"><path fill="#000000" d="M 428.691406 637.050781 L 402.882812 637.050781 L 408.082031 611.28125 L 433.890625 611.28125 Z M 428.691406 637.050781 " fill-opacity="1" fill-rule="nonzero"/></g><path fill="#000000" d="M 906.933594 146.664062 L 932.746094 146.664062 L 927.636719 172.433594 L 901.738281 172.433594 Z M 906.933594 146.664062 " fill-opacity="1" fill-rule="nonzero"/><path fill="#000000" d="M 958.640625 146.664062 L 984.453125 146.664062 L 979.34375 172.433594 L 953.445312 172.433594 Z M 958.640625 146.664062 " fill-opacity="1" fill-rule="nonzero"/><path fill="#000000" d="M 917.332031 95.132812 L 943.140625 95.132812 L 937.941406 120.898438 L 912.132812 120.898438 Z M 917.332031 95.132812 " fill-opacity="1" fill-rule="nonzero"/><path fill="#000000" d="M 886.234375 120.898438 L 912.132812 120.898438 L 906.933594 146.664062 L 881.125 146.664062 Z M 886.234375 120.898438 " fill-opacity="1" fill-rule="nonzero"/><g clip-path="url(#c3b2ba0bd1)"><path fill="#000000" d="M 875.929688 172.433594 L 901.738281 172.433594 L 896.539062 198.199219 L 870.730469 198.199219 Z M 875.929688 172.433594 " fill-opacity="1" fill-rule="nonzero"/></g><g clip-path="url(#58ef7fefc0)"><path fill="#000000" d="M 927.636719 172.433594 L 953.445312 172.433594 L 948.246094 198.199219 L 922.4375 198.199219 Z M 927.636719 172.433594 " fill-opacity="1" fill-rule="nonzero"/></g><g clip-path="url(#aa570ac2e5)"><path fill="#000000" d="M 979.34375 172.433594 L 1005.152344 172.433594 L 999.953125 198.199219 L 974.144531 198.199219 Z M 979.34375 172.433594 " fill-opacity="1" fill-rule="nonzero"/></g><path fill="#000000" d="M 886.917969 250 L 861.109375 250 L 866.21875 224.234375 L 892.117188 224.234375 Z M 886.917969 250 " fill-opacity="1" fill-rule="nonzero"/><path fill="#000000" d="M 835.210938 250 L 809.402344 250 L 814.511719 224.234375 L 840.410156 224.234375 Z M 835.210938 250 " fill-opacity="1" fill-rule="nonzero"/><g clip-path="url(#113c71b961)"><path fill="#000000" d="M 876.523438 301.535156 L 850.714844 301.535156 L 855.914062 275.765625 L 881.722656 275.765625 Z M 876.523438 301.535156 " fill-opacity="1" fill-rule="nonzero"/></g><path fill="#000000" d="M 907.621094 275.765625 L 881.722656 275.765625 L 886.917969 250 L 912.726562 250 Z M 907.621094 275.765625 " fill-opacity="1" fill-rule="nonzero"/><g clip-path="url(#d9108201af)"><path fill="#000000" d="M 917.925781 224.234375 L 892.117188 224.234375 L 897.316406 198.464844 L 923.125 198.464844 Z M 917.925781 224.234375 " fill-opacity="1" fill-rule="nonzero"/></g><g clip-path="url(#3a2bf3acd2)"><path fill="#000000" d="M 866.21875 224.234375 L 840.410156 224.234375 L 845.609375 198.464844 L 871.417969 198.464844 Z M 866.21875 224.234375 " fill-opacity="1" fill-rule="nonzero"/></g><g clip-path="url(#fb6b245e01)"><path fill="#000000" d="M 814.511719 224.234375 L 788.703125 224.234375 L 793.902344 198.464844 L 819.710938 198.464844 Z M 814.511719 224.234375 " fill-opacity="1" fill-rule="nonzero"/></g><path fill="#000000" d="M 804.804688 146.664062 L 830.613281 146.664062 L 825.503906 172.433594 L 799.605469 172.433594 Z M 804.804688 146.664062 " fill-opacity="1" fill-rule="nonzero"/><path fill="#000000" d="M 856.511719 146.664062 L 882.320312 146.664062 L 877.210938 172.433594 L 851.3125 172.433594 Z M 856.511719 146.664062 " fill-opacity="1" fill-rule="nonzero"/><path fill="#000000" d="M 815.199219 95.132812 L 841.007812 95.132812 L 835.808594 120.898438 L 810 120.898438 Z M 815.199219 95.132812 " fill-opacity="1" fill-rule="nonzero"/><path fill="#000000" d="M 784.101562 120.898438 L 810 120.898438 L 804.804688 146.664062 L 778.996094 146.664062 Z M 784.101562 120.898438 " fill-opacity="1" fill-rule="nonzero"/><g clip-path="url(#d8184ec4a5)"><path fill="#000000" d="M 773.796875 172.433594 L 799.605469 172.433594 L 794.40625 198.199219 L 768.597656 198.199219 Z M 773.796875 172.433594 " fill-opacity="1" fill-rule="nonzero"/></g><g clip-path="url(#8b8ae656d9)"><path fill="#000000" d="M 825.503906 172.433594 L 851.3125 172.433594 L 846.113281 198.199219 L 820.304688 198.199219 Z M 825.503906 172.433594 " fill-opacity="1" fill-rule="nonzero"/></g><g clip-path="url(#1700964178)"><path fill="#000000" d="M 877.210938 172.433594 L 903.019531 172.433594 L 897.820312 198.199219 L 872.011719 198.199219 Z M 877.210938 172.433594 " fill-opacity="1" fill-rule="nonzero"/></g><path fill="#000000" d="M 939.3125 249.871094 L 965.121094 249.871094 L 960.011719 275.636719 L 934.113281 275.636719 Z M 939.3125 249.871094 " fill-opacity="1" fill-rule="nonzero"/><path fill="#000000" d="M 991.019531 249.871094 L 1016.828125 249.871094 L 1011.71875 275.636719 L 985.820312 275.636719 Z M 991.019531 249.871094 " fill-opacity="1" fill-rule="nonzero"/><g clip-path="url(#1ded0ff654)"><path fill="#000000" d="M 949.707031 198.335938 L 975.515625 198.335938 L 970.316406 224.101562 L 944.507812 224.101562 Z M 949.707031 198.335938 " fill-opacity="1" fill-rule="nonzero"/></g><path fill="#000000" d="M 918.609375 224.101562 L 944.507812 224.101562 L 939.3125 249.871094 L 913.503906 249.871094 Z M 918.609375 224.101562 " fill-opacity="1" fill-rule="nonzero"/><g clip-path="url(#0ad1bcda97)"><path fill="#000000" d="M 908.304688 275.636719 L 934.113281 275.636719 L 928.914062 301.40625 L 903.105469 301.40625 Z M 908.304688 275.636719 " fill-opacity="1" fill-rule="nonzero"/></g><g clip-path="url(#3c5c1b8dac)"><path fill="#000000" d="M 960.011719 275.636719 L 985.820312 275.636719 L 980.621094 301.40625 L 954.8125 301.40625 Z M 960.011719 275.636719 " fill-opacity="1" fill-rule="nonzero"/></g><g clip-path="url(#6cc4ae1cd1)"><path fill="#000000" d="M 1011.71875 275.636719 L 1037.527344 275.636719 L 1032.328125 301.40625 L 1006.519531 301.40625 Z M 1011.71875 275.636719 " fill-opacity="1" fill-rule="nonzero"/></g><path fill="#000000" d="M 658.105469 95.0625 L 683.914062 95.0625 L 678.804688 120.832031 L 652.90625 120.832031 Z M 658.105469 95.0625 " fill-opacity="1" fill-rule="nonzero"/><path fill="#000000" d="M 709.8125 95.0625 L 735.621094 95.0625 L 730.511719 120.832031 L 704.613281 120.832031 Z M 709.8125 95.0625 " fill-opacity="1" fill-rule="nonzero"/><g clip-path="url(#b3437d8fa6)"><path fill="#000000" d="M 668.5 43.527344 L 694.308594 43.527344 L 689.113281 69.296875 L 663.304688 69.296875 Z M 668.5 43.527344 " fill-opacity="1" fill-rule="nonzero"/></g><path fill="#000000" d="M 637.40625 69.296875 L 663.304688 69.296875 L 658.105469 95.0625 L 632.296875 95.0625 Z M 637.40625 69.296875 " fill-opacity="1" fill-rule="nonzero"/><g clip-path="url(#eea7750bd3)"><path fill="#000000" d="M 627.097656 120.832031 L 652.90625 120.832031 L 647.710938 146.597656 L 621.902344 146.597656 Z M 627.097656 120.832031 " fill-opacity="1" fill-rule="nonzero"/></g><g clip-path="url(#df6f7b651a)"><path fill="#000000" d="M 678.804688 120.832031 L 704.613281 120.832031 L 699.417969 146.597656 L 673.609375 146.597656 Z M 678.804688 120.832031 " fill-opacity="1" fill-rule="nonzero"/></g><g clip-path="url(#125ac0a4ab)"><path fill="#000000" d="M 730.511719 120.832031 L 756.320312 120.832031 L 751.125 146.597656 L 725.316406 146.597656 Z M 730.511719 120.832031 " fill-opacity="1" fill-rule="nonzero"/></g><path fill="#000000" d="M 638.089844 198.398438 L 612.28125 198.398438 L 617.386719 172.628906 L 643.285156 172.628906 Z M 638.089844 198.398438 " fill-opacity="1" fill-rule="nonzero"/><path fill="#000000" d="M 586.382812 198.398438 L 560.574219 198.398438 L 565.679688 172.628906 L 591.578125 172.628906 Z M 586.382812 198.398438 " fill-opacity="1" fill-rule="nonzero"/><path fill="#000000" d="M 627.695312 249.933594 L 601.886719 249.933594 L 607.082031 224.164062 L 632.890625 224.164062 Z M 627.695312 249.933594 " fill-opacity="1" fill-rule="nonzero"/><path fill="#000000" d="M 658.789062 224.164062 L 632.890625 224.164062 L 638.089844 198.398438 L 663.898438 198.398438 Z M 658.789062 224.164062 " fill-opacity="1" fill-rule="nonzero"/><g clip-path="url(#0fe4ebcf08)"><path fill="#000000" d="M 669.09375 172.628906 L 643.285156 172.628906 L 648.484375 146.863281 L 674.292969 146.863281 Z M 669.09375 172.628906 " fill-opacity="1" fill-rule="nonzero"/></g><g clip-path="url(#10f5ec7db0)"><path fill="#000000" d="M 617.386719 172.628906 L 591.578125 172.628906 L 596.777344 146.863281 L 622.585938 146.863281 Z M 617.386719 172.628906 " fill-opacity="1" fill-rule="nonzero"/></g><g clip-path="url(#57d76074eb)"><path fill="#000000" d="M 565.679688 172.628906 L 539.871094 172.628906 L 545.070312 146.863281 L 570.878906 146.863281 Z M 565.679688 172.628906 " fill-opacity="1" fill-rule="nonzero"/></g><path fill="#000000" d="M 555.972656 95.0625 L 581.78125 95.0625 L 576.671875 120.832031 L 550.777344 120.832031 Z M 555.972656 95.0625 " fill-opacity="1" fill-rule="nonzero"/><path fill="#000000" d="M 607.679688 95.0625 L 633.488281 95.0625 L 628.378906 120.832031 L 602.484375 120.832031 Z M 607.679688 95.0625 " fill-opacity="1" fill-rule="nonzero"/><g clip-path="url(#728834ffac)"><path fill="#000000" d="M 566.367188 43.527344 L 592.175781 43.527344 L 586.980469 69.296875 L 561.171875 69.296875 Z M 566.367188 43.527344 " fill-opacity="1" fill-rule="nonzero"/></g><path fill="#000000" d="M 535.273438 69.296875 L 561.171875 69.296875 L 555.972656 95.0625 L 530.164062 95.0625 Z M 535.273438 69.296875 " fill-opacity="1" fill-rule="nonzero"/><g clip-path="url(#581f8d21fd)"><path fill="#000000" d="M 524.964844 120.832031 L 550.777344 120.832031 L 545.578125 146.597656 L 519.769531 146.597656 Z M 524.964844 120.832031 " fill-opacity="1" fill-rule="nonzero"/></g><g clip-path="url(#ada5e28e39)"><path fill="#000000" d="M 576.671875 120.832031 L 602.484375 120.832031 L 597.285156 146.597656 L 571.476562 146.597656 Z M 576.671875 120.832031 " fill-opacity="1" fill-rule="nonzero"/></g><g clip-path="url(#6549d323cc)"><path fill="#000000" d="M 628.378906 120.832031 L 654.1875 120.832031 L 648.992188 146.597656 L 623.183594 146.597656 Z M 628.378906 120.832031 " fill-opacity="1" fill-rule="nonzero"/></g><path fill="#000000" d="M 690.480469 198.269531 L 716.289062 198.269531 L 711.183594 224.035156 L 685.285156 224.035156 Z M 690.480469 198.269531 " fill-opacity="1" fill-rule="nonzero"/><path fill="#000000" d="M 742.1875 198.269531 L 767.996094 198.269531 L 762.886719 224.035156 L 736.992188 224.035156 Z M 742.1875 198.269531 " fill-opacity="1" fill-rule="nonzero"/><g clip-path="url(#e2f29a36fe)"><path fill="#000000" d="M 700.875 146.734375 L 726.683594 146.734375 L 721.488281 172.5 L 695.679688 172.5 Z M 700.875 146.734375 " fill-opacity="1" fill-rule="nonzero"/></g><path fill="#000000" d="M 669.78125 172.5 L 695.679688 172.5 L 690.480469 198.269531 L 664.671875 198.269531 Z M 669.78125 172.5 " fill-opacity="1" fill-rule="nonzero"/><g clip-path="url(#c6abd89b4b)"><path fill="#000000" d="M 659.476562 224.035156 L 685.285156 224.035156 L 680.085938 249.800781 L 654.277344 249.800781 Z M 659.476562 224.035156 " fill-opacity="1" fill-rule="nonzero"/></g><g clip-path="url(#f8029c6471)"><path fill="#000000" d="M 711.183594 224.035156 L 736.992188 224.035156 L 731.792969 249.800781 L 705.984375 249.800781 Z M 711.183594 224.035156 " fill-opacity="1" fill-rule="nonzero"/></g><g clip-path="url(#444cabbd2c)"><path fill="#000000" d="M 762.886719 224.035156 L 788.699219 224.035156 L 783.5 249.800781 L 757.691406 249.800781 Z M 762.886719 224.035156 " fill-opacity="1" fill-rule="nonzero"/></g><path fill="#000000" d="M 578.140625 250 L 552.332031 250 L 557.441406 224.234375 L 583.339844 224.234375 Z M 578.140625 250 " fill-opacity="1" fill-rule="nonzero"/><path fill="#000000" d="M 526.433594 250 L 500.625 250 L 505.734375 224.234375 L 531.632812 224.234375 Z M 526.433594 250 " fill-opacity="1" fill-rule="nonzero"/><g clip-path="url(#87c9b942f3)"><path fill="#000000" d="M 567.746094 301.535156 L 541.9375 301.535156 L 547.136719 275.765625 L 572.945312 275.765625 Z M 567.746094 301.535156 " fill-opacity="1" fill-rule="nonzero"/></g><path fill="#000000" d="M 598.84375 275.765625 L 572.945312 275.765625 L 578.140625 250 L 603.949219 250 Z M 598.84375 275.765625 " fill-opacity="1" fill-rule="nonzero"/><g clip-path="url(#eb1e9c1b98)"><path fill="#000000" d="M 609.148438 224.234375 L 583.339844 224.234375 L 588.539062 198.464844 L 614.347656 198.464844 Z M 609.148438 224.234375 " fill-opacity="1" fill-rule="nonzero"/></g><g clip-path="url(#3b0f7dc679)"><path fill="#000000" d="M 557.441406 224.234375 L 531.632812 224.234375 L 536.832031 198.464844 L 562.640625 198.464844 Z M 557.441406 224.234375 " fill-opacity="1" fill-rule="nonzero"/></g><g clip-path="url(#b79466a43c)"><path fill="#000000" d="M 505.734375 224.234375 L 479.925781 224.234375 L 485.125 198.464844 L 510.933594 198.464844 Z M 505.734375 224.234375 " fill-opacity="1" fill-rule="nonzero"/></g></svg>