<!DOCTYPE svg PUBLIC "-//W3C//DTD SVG 1.1//EN" "http://www.w3.org/Graphics/SVG/1.1/DTD/svg11.dtd">
<!-- Uploaded to: SVG Repo, www.svgrepo.com, Transformed by: SVG Repo Mixer Tools -->
<svg width="800px" height="800px" viewBox="0 0 24 24" id="Layer_1" data-name="Layer 1" xmlns="http://www.w3.org/2000/svg" fill="#ff7800">
<g id="SVGRepo_bgCarrier" stroke-width="0"/>
<g id="SVGRepo_tracerCarrier" stroke-linecap="round" stroke-linejoin="round"/>
<g id="SVGRepo_iconCarrier">
<defs>
<style>.cls-1{fill:none;stroke:#ff7800;stroke-miterlimit:10;stroke-width:1.91px;}</style>
</defs>
<circle class="cls-1" cx="9.16" cy="18.68" r="3.82"/>
<polyline class="cls-1" points="12.98 18.68 18.7 18.68 18.7 11.04 1.52 11.04 1.52 18.68 5.34 18.68"/>
<line class="cls-1" x1="23.48" y1="18.68" x2="18.7" y2="18.68"/>
<line class="cls-1" x1="20.61" y1="22.5" x2="20.61" y2="18.68"/>
<path class="cls-1" d="M9.64,8a3.91,3.91,0,0,1,2.95-1.71l.39,0A3.61,3.61,0,0,1,16.8,9.61a3,3,0,0,1-.38,1.44"/>
<path class="cls-1" d="M2.85,11.05a2.94,2.94,0,0,1-.37-1.44,3.51,3.51,0,0,1,3.26-3.3,3.36,3.36,0,0,1,.56,0A3.92,3.92,0,0,1,9.64,8c0,.05,0,.1.07.14a2.9,2.9,0,0,1,.4,1.47,2.94,2.94,0,0,1-.37,1.44"/>
<path class="cls-1" d="M5.74,6.31a2.87,2.87,0,0,1-.4-1.47A3.61,3.61,0,0,1,9.16,1.5,3.61,3.61,0,0,1,13,4.84a2.92,2.92,0,0,1-.39,1.45"/>
</g>
</svg>