<!DOCTYPE svg PUBLIC "-//W3C//DTD SVG 1.1//EN" "http://www.w3.org/Graphics/SVG/1.1/DTD/svg11.dtd">
<!-- Uploaded to: SVG Repo, www.svgrepo.com, Transformed by: SVG Repo Mixer Tools -->
<svg width="800px" height="800px" viewBox="0 0 24 24" id="Layer_1" data-name="Layer 1" xmlns="http://www.w3.org/2000/svg" fill="#000000">
<g id="SVGRepo_bgCarrier" stroke-width="0"/>
<g id="SVGRepo_tracerCarrier" stroke-linecap="round" stroke-linejoin="round"/>
<g id="SVGRepo_iconCarrier">
<defs>
<style>.cls-1{fill:none;stroke:#77767b;stroke-miterlimit:10;stroke-width:1.91px;}</style>
</defs>
<polyline class="cls-1" points="1.5 23.48 1.5 9.16 12 1.52 22.5 9.16 22.5 23.48"/>
<path class="cls-1" d="M7.23,14.89h9.55a1.91,1.91,0,0,1,1.91,1.91v3.82a0,0,0,0,1,0,0H5.32a0,0,0,0,1,0,0V16.8a1.91,1.91,0,0,1,1.91-1.91Z"/>
<line class="cls-1" x1="10.09" y1="17.75" x2="8.18" y2="17.75"/>
<line class="cls-1" x1="15.82" y1="17.75" x2="13.91" y2="17.75"/>
<rect class="cls-1" x="7.23" y="20.61" width="0.95" height="1.91"/>
<rect class="cls-1" x="15.82" y="20.61" width="0.95" height="1.91"/>
<path class="cls-1" d="M16.77,14.89H7.23l.59-2.38a1.9,1.9,0,0,1,1.85-1.44h4.66a1.9,1.9,0,0,1,1.85,1.44Z"/>
</g>
</svg>