<!DOCTYPE svg PUBLIC "-//W3C//DTD SVG 1.1//EN" "http://www.w3.org/Graphics/SVG/1.1/DTD/svg11.dtd">
<!-- Uploaded to: SVG Repo, www.svgrepo.com, Transformed by: SVG Repo Mixer Tools -->
<svg width="800px" height="800px" viewBox="0 0 24 24" xmlns="http://www.w3.org/2000/svg" fill="#000000">
<g id="SVGRepo_bgCarrier" stroke-width="0"/>
<g id="SVGRepo_tracerCarrier" stroke-linecap="round" stroke-linejoin="round"/>
<g id="SVGRepo_iconCarrier"> <defs> <style>.cls-1{fill:none;stroke:#77767b;stroke-linecap:square;stroke-miterlimit:10;stroke-width:1.91px;}</style> </defs> <g id="money_bag_3" data-name="money bag 3"> <path class="cls-1" d="M17.67,22.5H6.33A4.83,4.83,0,0,1,1.5,17.67h0a4.83,4.83,0,0,1,1.24-3.23l7.35-8.17h3.82l7.35,8.17a4.83,4.83,0,0,1,1.24,3.23h0A4.83,4.83,0,0,1,17.67,22.5Z"/> <path class="cls-1" d="M15.82,1.5l-.39,2A3.49,3.49,0,0,1,12,6.27h0A3.49,3.49,0,0,1,8.57,3.46l-.39-2Z"/> <line class="cls-1" x1="18.68" y1="3.41" x2="14.86" y2="5.32"/> <line class="cls-1" x1="19.64" y1="6.27" x2="13.91" y2="6.27"/> <path class="cls-1" d="M10.09,17.73h2.39a1.43,1.43,0,0,0,1.43-1.43h0a1.43,1.43,0,0,0-1.43-1.44h-1a1.43,1.43,0,0,1-1.43-1.43h0A1.43,1.43,0,0,1,11.52,12h2.39"/> <line class="cls-1" x1="12" y1="11.05" x2="12" y2="12"/> <line class="cls-1" x1="12" y1="17.73" x2="12" y2="18.68"/> </g> </g>
</svg>