<!DOCTYPE svg PUBLIC "-//W3C//DTD SVG 1.1//EN" "http://www.w3.org/Graphics/SVG/1.1/DTD/svg11.dtd">
<!-- Uploaded to: SVG Repo, www.svgrepo.com, Transformed by: SVG Repo Mixer Tools -->
<svg width="800px" height="800px" viewBox="0 0 24 24" xmlns="http://www.w3.org/2000/svg" fill="#77767b">
<g id="SVGRepo_bgCarrier" stroke-width="0"/>
<g id="SVGRepo_tracerCarrier" stroke-linecap="round" stroke-linejoin="round"/>
<g id="SVGRepo_iconCarrier"> <defs> <style>.cls-1{fill:none;stroke:#ff7800;stroke-linecap:square;stroke-miterlimit:10;stroke-width:1.91px;}</style> </defs> <g id="dollar_3" data-name="dollar 3"> <polyline class="cls-1" points="12 22.5 12 19.64 12 4.36 12 1.5"/> <path class="cls-1" d="M6.27,16.77h0a2.87,2.87,0,0,0,2.87,2.87h4.77a3.82,3.82,0,0,0,3.82-3.82h0A3.82,3.82,0,0,0,13.91,12H10.09A3.82,3.82,0,0,1,6.27,8.18h0a3.82,3.82,0,0,1,3.82-3.82h4.77a2.87,2.87,0,0,1,2.87,2.87h0"/> </g> </g>
</svg>